<?xml version="1.0" encoding="utf-8"?>
<!-- Generator: Adobe Illustrator 19.2.1, SVG Export Plug-In . SVG Version: 6.00 Build 0)  -->
<svg version="1.1" id="layer" xmlns="http://www.w3.org/2000/svg" xmlns:xlink="http://www.w3.org/1999/xlink" x="0px" y="0px"
	 viewBox="0 0 652 652" style="enable-background:new 0 0 652 652;" xml:space="preserve">
<style type="text/css">
	.st0{fill:#276194;}
</style>
<g>
	<g id="XMLID_77_">
		<path id="XMLID_100_" class="st0" d="M138.2,418.6C72.9,418.6,20,375.1,20,321.5s52.9-97.1,118.2-97.1s118.6,43.4,118.6,97.1
			S203.5,418.6,138.2,418.6z M138.2,230.8c-61.8,0-111.9,40.6-111.9,90.7s50.1,90.7,111.9,90.7s111.9-40.6,111.9-90.7
			S200,230.8,138.2,230.8z"/>
		<g id="XMLID_78_">
			<path id="XMLID_99_" class="st0" d="M195.4,310.2c3.5,0,7.1-2.8,7.1-6.4h-13.4C189.1,307.4,191.9,310.2,195.4,310.2z"/>
			<path id="XMLID_82_" class="st0" d="M88.5,334.6c2.1-7.1,6-14.1,10.2-20.5c4.6-7.1,10.6-13.4,12.4-14.1
				c-3.9-0.7-7.8,2.5-12.7,9.9c-2.8,4.2-7.8,13.8-15.2,18.7c-7.1,4.9-14.8-0.7-14.8-1.8c0-1.1,9.2,4.6,14.5-9.2
				c0.7-1.8,1.4-3.5,2.5-5.3c-3.9,1.1-7.4-1.4-7.1-2.1c0-0.7,6,3.2,9.5-6c4.9-13.1,9.5-15.5,16.2-18c0.4,0-0.4-4.2,4.6-10.2v-2.8
				l0.4-0.4c1.8-1.4,2.5-3.2,2.8-5.6c0.4,0,0.7,0,1.1,0c1.4,0,3.2,0,4.9-1.4c0.7-0.4,1.1-1.1,1.8-1.8l0,0h0.4c1.1,0,2.5-0.4,3.5-1.1
				c1.8-1.1,3.2-2.5,4.6-4.6l0,0c0.4-0.7,0.7-1.1,1.1-1.8c1.4,0,2.8-0.4,3.9-1.1c1.1-0.4,1.8-1.1,2.5-1.8c0,0-0.4,0.4-0.4,0.7
				c-1.1,1.8-2.5,4.6-4.9,7.4c-1.1,1.4-2.5,2.8-4.2,3.9c-0.4,0-0.4,0.4-0.7,0.4l-0.7,0.4c-0.4,0-0.4,0.4-0.7,0.4l-0.7,0.4h-0.4l0,0
				h-0.4l-0.7,0.4c-0.7,0-1.1,0.4-1.8,0.7c-2.5,1.1-4.6,2.5-6,4.6c-1.4,2.1-2.5,4.6-3.5,7.1c-0.7,2.5-1.4,4.9-1.8,7.1
				c-0.4,1.1-0.7,2.5-1.1,3.2c0,0,0,0,0,0.4l0,0l0,0l0,0h-0.4l0,0c-0.7,0-1.4,0-1.8,0c-0.7,0-1.1,0.4-1.8,0.4s-1.1,0.4-1.8,0.7
				c-1.1,0.7-2.1,1.4-2.8,2.5c-1.4,2.1-1.8,3.9-2.5,5.6s-1.4,3.2-2.1,4.6c-0.7,1.4-1.4,2.1-2.1,3.2c-0.7,0.7-1.4,1.4-1.8,1.8
				c-0.4,0.4-0.7,0.7-0.7,0.7s0.4-0.4,0.7-0.4c0.4-0.4,1.1-0.7,2.1-1.4c0.7-0.7,1.8-1.8,2.8-2.8c1.1-1.1,1.8-2.8,2.5-4.6
				c0.7-1.8,1.4-3.5,2.5-5.3c0.4-0.7,1.4-1.4,2.1-1.8c0.4,0,1.1-0.4,1.4-0.4s1.1,0,1.4-0.4c0.7,0,1.1,0,1.8,0l0,0h0.4l0,0h0.4h0.4
				c0,0,0.4,0,0.4-0.4c0.4,0,0.4-0.4,0.7-0.4l0.4-0.4c0.7-1.4,1.1-2.5,1.4-3.9c0.7-2.5,1.1-4.9,1.8-7.1c0.7-2.1,1.8-4.6,2.8-6.4
				c1.4-1.8,2.8-3.2,4.9-4.2c0.4-0.4,1.1-0.4,1.4-0.7l0.7-0.4h0.4l0,0l0,0l0,0h0.4l0.7-0.4c0.4,0,0.7-0.4,0.7-0.4l0.7-0.4
				c0.4,0,0.4-0.4,0.7-0.4c1.8-1.4,3.2-2.8,4.2-4.6c2.1-3.2,3.2-6,4.2-8.1c0.4-0.4,0.4-1.1,0.4-1.4c1.4-1.1,1.4-1.1,1.4-1.1
				c0.4-0.4,0.4-0.4,0.4-0.7c1.4,0,3.2-0.7,4.2-2.1l0,0c1.4,0.7,3.2,1.1,4.6,1.8c1.8,1.1,3.5,2.1,4.6,3.9c-0.4,0-1.1,0.4-1.8,0.7
				c0,0-0.4,0.4-0.7,0.4l-0.4,0.4l-0.7,0.7c-0.4,0.4-0.7,1.1-1.1,1.4c-0.4,0.4-0.7,1.1-1.1,1.4c-0.7,0.7-1.4,1.4-2.5,2.1
				s-2.1,1.1-3.2,1.4c-0.7,0.4-1.1,0.7-1.8,1.4c-0.4,0.7-0.7,1.1-1.1,1.8c0.4,1.4,0.4,2.5-0.4,3.2c-0.7,0.7-1.8,1.4-2.8,2.1
				l-1.4,1.1l-0.7,0.4h-0.7h-0.4l0,0c0,0,0,0-0.4,0c-0.4,0.4,0.4,1.1,0.4,1.1c0.4,0,0,0,0,0l0,0l3.5-0.4c1.1,0,2.5-0.4,3.5-0.4
				c0.7,0,1.1,0,1.8,0s1.1,0,1.8,0c1.4,0,2.5-0.4,3.5-1.4c0.7-1.1,1.1-2.1,1.8-3.2c-0.7,1.1-1.1,2.1-1.8,3.2
				c-0.7,0.7-2.1,1.1-3.2,1.1c-0.7,0-1.1-0.4-1.8-0.4s-1.1,0-1.8,0c-1.1,0-2.5,0-3.5,0l-0.7,0.4c0.4,0,0.4-0.4,0.7-0.4
				c1.1-0.7,2.1-1.1,3.2-2.1c1.1-1.1,1.4-2.5,1.8-3.5c0.4-0.4,0.4-1.1,0.7-1.4c0.4-0.4,0.7-0.7,1.1-1.1c1.1-0.4,2.1-1.1,3.5-1.4
				c1.1-0.7,2.1-1.4,3.2-2.5c0.4-0.7,0.7-1.1,1.1-1.4s0.7-0.7,1.1-1.4l0.7-0.7l0.4-0.4l0,0c0.4-0.4,0.7-0.4,1.4-0.4
				c0.4,0,0.7,0,1.1,0l0,0c0.7,0.4,1.8,0.7,2.5,1.1c0.4,0.4,0.4,0.4,0.7,0.4l0,0l0,0h0.4l0.7,0.4h0.4l0.4,0.4
				c-0.7,0-1.1,0.4-1.8,0.4c-0.7,0.4-1.8,0.7-2.5,1.1c-0.7,0.7-1.4,1.4-1.8,2.5v0.7v0.4c0,0.4,0,0.7-0.4,1.1
				c-0.4,0.7-0.4,1.1-0.7,1.4c-0.4,0.4-1.1,0.7-1.8,1.8c-0.7,0.7-1.1,1.8-1.4,2.5c0,0.4-0.4,0.7-0.4,1.4v2.1c0,0.7-0.4,1.4-0.4,2.1
				s-0.4,1.1-0.7,1.4c0,0,0,0-0.4,0l0,0l0,0l0,0l-1.1,0.4c-0.7,0-1.4,0.4-2.5,0.7c-0.7,0.4-1.4,0.4-2.5,0.7
				c-0.4,0.4-0.7,0.4-1.1,0.7s-0.7,0.7-1.1,1.4c-0.4,0.7-0.4,1.4-0.4,1.8c-0.4,0.4-1.1,0.4-1.8,0.7c0,0-0.4,0-0.7,0.4
				c-0.4,0-0.7,0.4-0.7,0.7c-0.4,0.4-0.4,0.7-0.4,0.7v0.4v0.4c0,1.1,0,1.4,0,2.1c0,0.7,0.4,1.4,0.4,2.1c0,0.4,0,0.7,0.4,1.1
				c0,0.4,0.4,0.7,0.4,1.1c0.4,0.7,0.4,1.1,0.7,1.8c0.4,1.1,0.4,2.1,0,3.2c-0.4,0.4-0.4,1.1-0.7,1.4c-0.4,0.4-0.7,0.7-1.1,1.4
				c-0.7,1.1-1.8,1.4-2.8,2.1c-1.1,0.7-2.5,1.1-3.5,1.8l-1.4,0.4l-1.1,0.4l-1.8,0.7l-2.1,0.7l4.9-4.9c1.1-1.1,1.8-1.8,2.8-2.8
				c1.1-1.1,1.8-2.1,2.1-3.5c0.4-1.4,0.4-2.8,0-3.9c-0.4-1.4-0.7-2.5-1.4-3.9c0.7,1.1,1.1,2.5,1.1,3.9s0,2.5-0.4,3.9
				c-0.4,1.4-1.1,2.5-2.1,3.2c-1.1,1.1-2.1,1.8-2.8,2.5c-2.1,1.8-3.9,3.5-6,5.3c-0.4,0.4-1.1,1.1-1.4,1.4l-0.4,0.4l0,0
				c0-0.7-0.4,1.1-0.4,0.7c0,0,0,0.4,0.4,0.4s0.7,0,0.4,0l0,0l0,0l0,0h0.4l1.1-0.4l3.9-1.4l1.8-0.7l1.1-0.4l1.1-0.4
				c1.1-0.4,2.5-1.1,3.5-1.4c1.4-0.7,2.5-1.4,3.5-2.5c0.4-0.4,1.1-1.1,1.4-1.8c0.4-0.7,0.7-1.4,1.1-2.1c0.4-0.7,0.4-1.4,0.4-2.5
				c0-0.7,0-1.4-0.4-2.1c-0.4-1.4-1.1-2.5-1.1-3.9c0-0.7-0.4-1.4-0.4-1.8c0-0.7,0-1.4,0-1.8l0,0l0,0l0,0c0,0,0,0,0.4,0
				c0.7-0.4,1.4-0.4,2.1-0.7l0,0c0.4-0.4,0.7-0.4,0.7-0.7s0-0.4,0.4-0.7c0-0.4,0-0.4,0-0.4c0-0.4,0-0.7,0-0.7c0-0.4,0.7-0.7,1.4-0.7
				c0.7-0.4,1.4-0.4,2.1-0.7c0.7-0.4,1.4-0.4,2.1-0.7l1.1-0.4h0.4c0,0,0.4,0,0.4-0.4c0.4,0,0.7-0.4,0.7-0.4c1.1-0.7,1.1-1.8,1.4-2.8
				c0.4-0.7,0.4-1.8,0.4-2.5l0.4-1.1c0-0.4,0-0.7,0.4-1.1c0.4-0.7,0.4-1.1,0.7-1.8c0.4-0.4,1.1-0.7,1.8-1.4c0.7-0.7,1.1-1.8,1.4-2.5
				c0-0.4,0.4-0.7,0.4-1.4V265l0,0l0,0v-0.4c0-0.4,0.4-0.7,0.7-1.1s1.1-0.7,1.8-0.7c0.7-0.4,1.4-0.4,2.1-0.7c0.4,0,0.4,0,0.7-0.4
				c0.7,0.7,1.4,1.8,1.8,2.8c0.7,1.4,0.7,2.8,0.4,4.2c-0.4,1.1,0,2.1,0,3.2c0.4,3.5,0.4,7.1-1.4,10.6c-0.4,0.7-0.7,1.4-1.4,2.1
				c-1.1,0.7-1.4,1.8-1.1,2.8c0.4,2.1,0.4,4.6,1.1,6.7c0.4,1.8,0,2.1-1.8,2.1c-2.1,0-2.8,0.7-2.8,2.8c0,0.7-0.4,1.1-1.1,1.4
				c-0.4,0-1.1,0.4-1.4,0.4c0,1.4-0.4,2.5-1.8,3.2c-0.4,0-0.7,1.1-0.7,1.4c-0.4,2.5-1.8,3.2-3.9,2.5c-2.1-0.7-3.9-1.1-6-1.8
				c-1.4-0.4-3.5-0.4-4.6,0.4c-6,3.9-1.8,12.4-2.1,13.1c-0.4,1.4-2.5-4.6-13.4-7.1c-9.2-2.1-13.4,1.8-13.4,1.8
				c-9.2,4.6-12,23.3-18.7,44.1c-2.8,9.2-7.8,18.7-16.2,24c-0.4,0-2.1,0.7-4.9,2.1c2.1,1.8,4.2,3.2,6.7,4.6
				c5.3-4.2,10.2-9.2,12.7-15.5c5.3-11.6,9.9-34.6,9.9-34.9s0.7-0.4,0.7,0.4c-0.4,2.1,1.8,20.8,1.8,20.8s0,0,2.1,17.6
				c1.1,7.8,1.1,15.9-2.1,22.9c0,0.4,0,0.4-0.4,0.7c2.1,0.7,3.9,1.4,6,1.8c1.1-3.2,1.8-6.7,1.8-10.2c0-2.1-4.9-36.4-4.9-36.4
				c-1.8-13.4-3.2-25.8,1.1-32.1c5.3-7.8,15.2-12.7,26.5-3.9c6.7,5.3,6,8.8,8.5,16.6c1.4,4.9,4.2,10.2,8.1,13.8
				c4.2,4.6,8.5,9.2,11.3,14.8c4.9-9.2,12.7-16.2,19.1-24.4c1.1-1.8,2.8-4.9,3.9-6.7c0-0.4,7.8-13.1,9.5-14.1
				c0.7-0.4,5.3-1.1,7.1-2.1c0.7-0.4,2.1,0,2.5,0c1.1,0,1.1,1.8,1.1,2.1c0,0.7-0.7,0.7-0.7,0.7c0.4,0,1.1,0,1.1,0.7
				c0.4,3.2-0.7,2.8-1.1,2.8c0,0,1.1,0,1.1,0.7c0.4,2.8,0,2.5-0.4,3.2c-0.4,0.4,0,0,0,0.7c0,2.1-0.4,1.8-1.8,3.2c0,0,0,0.7-1.1,1.4
				c-2.8,2.1-9.5,5.6-9.9,6.4c-1.4,1.4-5.6,8.8-8.1,13.4c-1.1,2.8-2.5,6-3.9,8.8c-2.8,5.6-10.9,19.4-16.9,22.2
				c-3.5,2.5-5.6-2.1-9.2-4.6c-2.8-2.1-5.6-4.6-8.1-6.7c-4.2-3.5-8.5-7.4-12-11.6c-3.9-4.2-7.4-9.2-9.9-14.5
				c-1.1-2.5-2.1-5.3-3.5-7.8c0,0.4,0,0.7,0.4,1.1c0.4,0.7,0.4,1.4,0.7,2.1c1.4,3.5,2.5,7.4,4.2,10.9c1.8,3.2,3.9,6.4,6.4,9.2
				c11.3,13.4,22.2,26.5,42.7,41.3c2.1-0.7,4.6-1.1,6.7-1.8c-7.8-4.9-13.8-9.5-16.9-13.1c-0.7-1.1,2.8-2.5,3.2-2.8
				c0,0,22.6,19.1,59.6-10.9c14.8-14.8,23.3-33.5,23.3-54.4c0.7-47.3-46.6-86.1-105.5-86.1S32,273.9,32,321.5
				c0,16.6,5.6,32.1,15.5,45.2C59.2,379,78.2,368.4,88.5,334.6z M130.1,273.9L130.1,273.9L130.1,273.9z M155.9,359.3
				c-1.1-2.8-4.9-7.1-6-7.8c-10.2-8.8-11.3-13.8-14.5-27.5c-0.7-1.8-0.7-1.8-0.4-2.1c1.4-0.7,7.4,15.9,13.8,23.3
				C159.1,356.4,155.9,359.3,155.9,359.3z M187.3,296.4c1.1-4.2,3.2-8.5,4.9-12.7l14.5,3.2c0,2.8,0,9.5-0.7,12.7
				c-0.4,1.8-1.1,4.6-2.1,6.4c-1.8,3.2-4.2,5.3-7.8,6.7c-2.5,1.1-2.1,0.7-2.8,3.5c0,0.7-0.4,1.1-0.4,1.8l-2.1,0.7
				c0.4-1.1,0.4-2.5,0.7-3.5c0.4-1.1,0-1.8-0.7-2.8c-1.8-2.1-3.2-4.2-4.2-6.7C186.2,302.4,186.2,299.6,187.3,296.4z M137.5,245.6
				c0.7,0.4,1.1,0.7,1.4,1.1c0.7,0.4,1.1,1.1,1.1,1.8c0,0,0,0,0,0.4c-0.4,0.7-1.1,1.1-2.1,1.4c0-0.7-0.4-1.4-1.1-2.1
				C137.2,247,137.5,246.3,137.5,245.6z M128,253.7c-0.4,1.1-0.7,2.1-1.4,3.2l0,0c-1.1,1.8-2.5,3.2-3.9,3.9
				c-0.7,0.4-1.4,0.7-2.1,0.7c0-0.7-0.4-1.4-0.4-2.1c0.4-3.2,1.4-6,3.9-8.8c1.1,0.4,2.5,0.7,3.5,0.7C128,252.3,128,253,128,253.7z
				 M135.4,251.3c-1.1,1.1-2.1,1.8-3.2,2.5c-0.7,0.4-1.4,0.7-2.1,0.7c0.4-1.1,0.4-2.5,0-3.9c0.7-1.1,2.1-2.1,3.9-1.8
				c0.7,0,1.4,0.7,1.4,1.4C135.8,250.6,135.4,250.9,135.4,251.3z M134.4,243.9c0.7,0,1.1,0.7,1.1,1.1c0,1.1,0,1.4-0.7,1.8
				c-1.1-0.7-1.8-1.4-2.8-2.1C132.9,243.9,133.6,243.5,134.4,243.9z M124.1,244.9c1.1-0.7,2.1-1.1,3.2-1.1c1.4,0.4,2.1,0.7,2.8,1.8
				c0.4,0.4,0.7,0.7,1.1,1.1c-1.1,0.4-2.1,1.4-3.2,2.5c-0.4,0-1.1-0.4-1.4-0.4c-0.7-0.4-1.8-0.4-2.5-0.7c-0.7-0.4-1.4-0.4-2.1-0.7
				l0,0C122.4,246.3,123.1,245.6,124.1,244.9z M117.1,250.2c0.4-0.4,0.7-1.1,1.4-1.1c0.4,0,0.4,0,0.7,0c0.4,0,0.7,0,1.1,0.4
				c0.7,0.4,1.1,0.7,1.8,0.7c0,0.4-0.4,0.4-0.4,0.7c-0.4,0.4-0.4,0.7-0.7,1.1c0,0.4-0.4,0.4-0.4,0.7c-0.4,0-0.4,0-0.7,0
				c-0.7,0-1.4,0-2.1-0.4c-0.4,0-0.7-0.4-1.1-0.4C116.7,251.6,116.7,251.3,117.1,250.2z M117.1,254.8c0.4-0.4,0.4-0.4,0.7,0
				c0.4,0,1.1,0.4,1.4,0.4c0,0.4-0.4,0.7-0.4,1.1c-0.7,2.5-1.1,4.2-0.7,6.4l-0.4,0.4c-0.4,0.7-1.1,1.1-1.4,1.4
				c-1.1,0.7-2.1,1.1-3.9,1.1h-0.4l0,0c0-0.7,0-1.4,0-2.1C112.8,259.4,114.2,256.6,117.1,254.8z M110.4,254.4
				c1.1-1.8,2.5-2.1,4.2-2.1c0,0.4,0.4,0.7,0.7,0.7c-1.4,1.1-2.5,2.5-3.2,3.9c-0.7-0.4-1.4-0.4-2.1-0.4
				C109.6,255.9,110,255.1,110.4,254.4z M106.1,262.9c0.7-1.4,1.4-2.5,2.8-3.9c0.7,0,1.4,0,2.1,0c-0.7,1.8-1.1,3.9-1.1,6.4
				c0,0.4,0,0.7,0,1.1c-0.4,1.8-0.7,3.2-2.1,4.2c-1.1-0.7-1.8-2.1-2.1-3.5C105.4,265.7,105.4,264.3,106.1,262.9z M103.3,266.4
				c0,2.5,1.1,4.6,3.2,6c0,0.4-0.4,0.4-0.4,0.7c-0.4,0.4-0.7,0.7-1.1,1.4c-1.1-0.7-1.8-1.8-2.1-3.2
				C102.6,270,102.6,268.2,103.3,266.4z M99.4,274.9c0.4-1.1,0.7-1.8,1.1-2.5c0.4,1.1,1.1,2.1,2.5,3.9c-0.4,0.4-1.4,0.7-2.1,0.7l0,0
				C100.1,276.7,99.4,276.3,99.4,274.9L99.4,274.9z M99.4,278.4c1.4,1.4,3.5,1.1,5.3-0.7c-0.7,1.4-1.4,3.2-2.8,3.2
				c-0.4,0-1.1-0.4-1.8-0.7c-0.7-0.4-1.1-0.7-2.5-2.5v-0.4C98,277.4,98.4,277.7,99.4,278.4z"/>
			<path id="XMLID_81_" class="st0" d="M114.6,303.9c0.7-0.7,1.1-1.4,1.4-2.5c0.4-0.7,0.7-1.4,0.7-2.1c0-0.7,0.4-1.4,0.4-1.8
				c0-0.4,0-0.7,0-1.1s0-0.4,0-0.4s0,0-0.4,0.4c0,0.4-0.4,0.7-0.4,1.1c-0.4,1.1-0.7,2.1-1.8,3.2c-0.4,0.4-0.4,0.7-0.7,1.1
				c-0.4,0.4-0.7,0.7-0.7,1.1c-0.7,0.7-1.4,1.1-2.1,1.8c-0.7,0.7-1.8,1.1-2.5,1.8c-0.7,0.7-1.8,1.1-2.8,1.8l-0.4,0.4l0,0l0,0l0,0
				c0,0,0,0-0.4,0.4l0,0l0,0c0,0,0,0,0,0.4s0,0.7,0,1.1s0.4,0.4,0.4,0.4s0,0,0.4,0c0,0,0,0,0.4,0l0,0h0.4c0.4,0,0.4,0,0.7,0
				c0.7,0,1.1,0,1.8-0.4c1.1-0.4,2.1-0.7,3.2-1.1c1.8-0.7,3.5-1.8,4.9-3.2c1.4-1.1,2.1-2.1,2.5-3.2c0.4-0.4,0.4-0.7,0.4-1.1
				c0-0.4,0-0.4,0-0.4s0,0-0.4,0.4c0,0.4-0.4,0.4-0.7,0.7c-0.7,0.7-1.8,1.4-3.2,2.1c-1.1,0.7-2.8,1.4-4.2,2.1
				c0.4-0.4,0.7-0.7,1.1-1.1C113.2,305.3,113.9,304.6,114.6,303.9z"/>
			<path id="XMLID_1_" class="st0" d="M132.9,277.4c-0.4-0.4-0.4,0-0.4,0l0,0c-0.4,0-0.4,0-0.4,0c-1.1,0-1.8,0.4-2.5,0
				c-1.1,0-2.1-0.4-3.2,0c-1.1,0-2.1,0.4-3.2,1.1c-1.1,0.4-1.8,1.1-2.5,2.1c-0.7,0.7-1.1,1.8-1.4,2.5c-0.4,0.7-0.7,1.8-0.7,2.5
				c-0.4,1.4-0.4,2.8-0.4,3.9c0,1.1,0,1.4,0,1.4s0-0.4,0.4-1.4c0.4-0.7,0.7-2.1,1.4-3.2c0.4-0.7,0.7-1.4,1.1-2.1
				c0.4-0.7,0.7-1.4,1.4-2.1c0.4-0.7,1.1-1.1,2.1-1.4c0.7-0.4,1.8-0.7,2.5-0.7c0.7,0,1.8,0,2.8,0l0,0c-0.4,0-0.7,0.4-1.1,0.4
				c-0.7,0.4-1.4,1.1-1.8,1.4c-0.4,0.4-0.7,1.1-0.7,1.4c0,0.4-0.4,0.7-0.4,1.1s0,0.4,0,0.4s0,0,0.4-0.4c0-0.4,0.4-0.4,0.7-0.7
				c0.7-0.7,1.4-1.4,2.8-2.1c0.4,0,0.7-0.4,1.1-0.4c0.4,0,0.4,0,0.7,0h0.4h0.4c0.4-0.4,0.7-0.4,1.4-0.7c0.4-0.4,0.4-0.4,0.7-0.7l0,0
				l0,0l0,0l0,0c0,0.7,0.4-1.1,0-0.7C133.6,278.1,133.3,277.4,132.9,277.4z"/>
			<path id="XMLID_79_" class="st0" d="M131.5,399.1c-0.4-1.8-0.4-3.2-0.7-4.6c-0.7-2.8-1.8-5.6-2.8-8.1c-2.1-4.9-4.6-8.5-6.4-10.9
				c-1.8-2.5-3.2-3.5-3.2-3.5s0.7,1.4,1.8,4.2c1.1,2.8,2.5,6.7,3.5,11.3c0.7,2.5,1.1,4.9,1.4,7.8c0.4,1.4,0,2.8,0.4,4.2
				c0,1.4,0,2.8,0,4.2c0,1.1-0.4,2.5-0.4,3.5c2.1,0.4,4.6,0.4,6.7,0.4c0-1.4,0.4-2.5,0-3.9C131.9,402.3,131.9,400.6,131.5,399.1z"/>
		</g>
	</g>
	<g id="XMLID_72_">
		<path id="XMLID_76_" class="st0" d="M399.8,276l-16.2,52.9c-0.7,2.8-1.4,5.3-2.1,7.4c-0.7-2.1-1.4-4.6-2.5-7.1L360.6,276h-19.4
			l6.4,18l-12.4,36c-0.7,2.5-1.8,4.6-2.5,7.1c-0.7-2.5-1.4-4.9-2.1-7.1l-17.3-53.6h-21.2l32.1,91.4h15.2l14.5-39.9l0.4-1.4
			c0.7-2.1,1.4-3.9,2.1-6.4c0.7,2.5,1.8,5.3,2.8,7.8l14.1,39.5h15.5l30.7-91.4C419.5,276,399.8,276,399.8,276z"/>
		<path id="XMLID_75_" class="st0" d="M453.4,312.7c-7.8-4.2-14.1-7.8-14.1-13.8c0-5.3,5.6-7.1,10.9-7.1c6,0,12,1.8,19.4,6l2.5,1.4
			l0.4-18l-0.7-0.4c-3.5-1.8-10.9-4.9-22.2-4.9c-17.6,0-30,10.6-30,25.8c0,6.7,2.1,12.4,6,16.6c4.6,5.3,10.9,8.5,16.9,11.6
			c7.8,4.2,14.5,7.8,14.5,13.8c0,6.4-6.7,8.5-12.7,8.5c-6.4,0-12.7-2.1-18.7-6.4l-1.4-1.1l-8.1,14.8l1.4,0.7
			c8.1,5.6,17.3,8.1,27.5,8.1c19.1,0,32.1-10.9,32.1-26.8C476.7,325,463.6,318.3,453.4,312.7z"/>
		<polygon id="XMLID_74_" class="st0" points="533.2,292.9 538.5,276 486.2,276 486.2,367 538.1,367 538.1,350.1 505.6,350.1 
			505.6,328.9 533.5,328.9 533.5,312.3 505.6,312.3 505.6,292.9 		"/>
		<polygon id="XMLID_73_" class="st0" points="547.3,276 547.3,292.9 572.4,292.9 572.4,367 591.8,367 591.8,292.9 615.1,292.9 
			620,276 		"/>
	</g>
</g>
</svg>
